{
    "asset" : {
        "generator" : "Khronos glTF Blender I/O v1.1.46",
        "version" : "2.0"
    },
    "scene" : 0,
    "scenes" : [
        {
            "name" : "Scene",
            "nodes" : [
                0
            ]
        }
    ],
    "nodes" : [
        {
            "mesh" : 0,
            "name" : "Donut",
            "translation" : [
                0,
                0.011904481798410416,
                0
            ]
        }
    ],
    "meshes" : [
        {
            "name" : "Torus.003",
            "primitives" : [
                {
                    "attributes" : {
                        "POSITION" : 0,
                        "NORMAL" : 1,
                        "TEXCOORD_0" : 2
                    },
                    "indices" : 3
                }
            ]
        }
    ],
    "accessors" : [
        {
            "bufferView" : 0,
            "componentType" : 5126,
            "count" : 4949,
            "max" : [
                0.07466454803943634,
                0.03611746057868004,
                0.06698895245790482
            ],
            "min" : [
                -0.06660974770784378,
                -0.022315995767712593,
                -0.07704406976699829
            ],
            "type" : "VEC3"
        },
        {
            "bufferView" : 1,
            "componentType" : 5126,
            "count" : 4949,
            "type" : "VEC3"
        },
        {
            "bufferView" : 2,
            "componentType" : 5126,
            "count" : 4949,
            "type" : "VEC2"
        },
        {
            "bufferView" : 3,
            "componentType" : 5123,
            "count" : 28800,
            "type" : "SCALAR"
        }
    ],
    "bufferViews" : [
        {
            "buffer" : 0,
            "byteLength" : 59388,
            "byteOffset" : 0
        },
        {
            "buffer" : 0,
            "byteLength" : 59388,
            "byteOffset" : 59388
        },
        {
            "buffer" : 0,
            "byteLength" : 39592,
            "byteOffset" : 118776
        },
        {
            "buffer" : 0,
            "byteLength" : 57600,
            "byteOffset" : 158368
        }
    ],
    "buffers" : [
        {
            "byteLength" : 215968,
            "uri" : "data:application/octet-stream;base64,"
        }
    ]
}
